<svg width="48" height="48" viewBox="0 0 48 48" fill="none" xmlns="http://www.w3.org/2000/svg">
  <rect width="48" height="48" fill="black" />
  <path
    d="M33.8374 29.5527C33.8374 30.0326 33.7412 30.4824 33.5493 30.9023C33.3693 31.3343 33.0754 31.6767 32.6675 31.9287C32.2715 32.1927 31.7491 32.3252 31.1011 32.3252C30.7893 32.3252 30.5315 32.3009 30.3276 32.2529C30.1358 32.205 30.0098 32.1685 29.9497 32.1445V29.9307C30.0097 29.9426 30.0817 29.9548 30.1655 29.9668C30.2615 29.9788 30.3754 29.9844 30.5073 29.9844C30.7353 29.9844 30.9098 29.9004 31.0298 29.7324C31.1495 29.5765 31.2095 29.3606 31.2095 29.085V20.0127H33.8374V29.5527Z"
    fill="white" />
  <path fill-rule="evenodd" clip-rule="evenodd"
    d="M7.3999 19.7969C8.16769 19.7969 8.83964 19.9826 9.41553 20.3545C9.65017 20.506 9.86235 20.6863 10.0552 20.8916L10.3159 20.0127H12.2778V32.2344H9.6499V28.3604C9.57995 28.4122 9.50843 28.4623 9.43408 28.5088C8.87008 28.8568 8.19748 29.0312 7.41748 29.0312C6.62571 29.0312 5.92388 28.8389 5.31201 28.4551C4.70001 28.0591 4.21958 27.5124 3.87158 26.8164C3.5237 26.1205 3.34913 25.3227 3.34912 24.4229C3.34912 23.5109 3.518 22.7067 3.854 22.0107C4.20199 21.3149 4.68153 20.7746 5.29346 20.3906C5.90546 19.9946 6.6079 19.7969 7.3999 19.7969ZM7.90381 22.2627C7.36381 22.2627 6.91322 22.467 6.55322 22.875C6.2054 23.271 6.03174 23.787 6.03174 24.4229C6.03175 25.0467 6.20537 25.5628 6.55322 25.9707C6.91322 26.3667 7.36381 26.5645 7.90381 26.5645C8.44372 26.5644 8.88788 26.3667 9.23584 25.9707C9.59565 25.5628 9.77579 25.041 9.77588 24.4053C9.77588 23.7814 9.59571 23.271 9.23584 22.875C8.88788 22.467 8.44372 22.2627 7.90381 22.2627Z"
    fill="white" />
  <path fill-rule="evenodd" clip-rule="evenodd"
    d="M23.3921 20.4697C23.4563 20.423 23.5225 20.3788 23.5903 20.3369C24.1663 19.9769 24.8445 19.7969 25.6245 19.7969C26.4163 19.7969 27.1181 19.9948 27.73 20.3906C28.342 20.7746 28.8224 21.3147 29.1704 22.0107C29.5184 22.7067 29.6919 23.5053 29.6919 24.4053C29.6918 25.3049 29.5182 26.1086 29.1704 26.8164C28.8344 27.5124 28.3605 28.0591 27.7485 28.4551C27.1485 28.8391 26.4461 29.0312 25.6421 29.0312C24.8742 29.0312 24.2024 28.8446 23.6265 28.4727C23.3923 28.3166 23.1803 28.1344 22.9878 27.9287L22.7261 28.8145H20.7642V16.5566H23.3921V20.4697ZM25.1382 22.2627C24.6102 22.2627 24.1662 22.467 23.8062 22.875C23.4462 23.271 23.2661 23.7813 23.2661 24.4053C23.2662 25.041 23.4463 25.5628 23.8062 25.9707C24.1662 26.3667 24.6102 26.5645 25.1382 26.5645C25.6782 26.5645 26.1222 26.3667 26.4702 25.9707C26.8301 25.5628 27.0102 25.041 27.0103 24.4053C27.0103 23.7813 26.8301 23.271 26.4702 22.875C26.1222 22.467 25.6782 22.2627 25.1382 22.2627Z"
    fill="white" />
  <path fill-rule="evenodd" clip-rule="evenodd"
    d="M38.3511 20.4697C38.4153 20.423 38.4815 20.3788 38.5493 20.3369C39.1253 19.9769 39.8035 19.7969 40.5835 19.7969C41.3753 19.7969 42.0771 19.9948 42.689 20.3906C43.301 20.7746 43.7814 21.3147 44.1294 22.0107C44.4774 22.7067 44.6509 23.5053 44.6509 24.4053C44.6508 25.3049 44.4772 26.1086 44.1294 26.8164C43.7934 27.5124 43.3195 28.0591 42.7075 28.4551C42.1075 28.8391 41.4051 29.0312 40.6011 29.0312C39.8332 29.0312 39.1614 28.8446 38.5854 28.4727C38.3513 28.3166 38.1393 28.1344 37.9468 27.9287L37.6851 28.8145H35.7231V16.5566H38.3511V20.4697ZM40.0972 22.2627C39.5692 22.2627 39.1251 22.467 38.7651 22.875C38.4052 23.271 38.2251 23.7813 38.2251 24.4053C38.2252 25.041 38.4053 25.5628 38.7651 25.9707C39.1251 26.3667 39.5692 26.5645 40.0972 26.5645C40.6372 26.5645 41.0812 26.3667 41.4292 25.9707C41.7891 25.5628 41.9691 25.041 41.9692 24.4053C41.9692 23.7813 41.7891 23.271 41.4292 22.875C41.0812 22.467 40.6372 22.2627 40.0972 22.2627Z"
    fill="white" />
  <path
    d="M18.6187 19.7969C18.8107 19.7969 18.9851 19.809 19.1411 19.833C19.297 19.857 19.4231 19.899 19.519 19.959V22.3525H18.9253C18.1574 22.3525 17.5509 22.4786 17.1069 22.7305C16.9888 22.7961 16.8811 22.8739 16.7827 22.9619V28.8145H14.1548V20.0127H16.0991L16.3569 20.9297C16.4117 20.8717 16.4696 20.8122 16.5308 20.751C16.8068 20.487 17.1249 20.265 17.4849 20.085C17.8568 19.893 18.2347 19.7969 18.6187 19.7969Z"
    fill="white" />
  <path
    d="M32.5054 15.6748C32.9733 15.6748 33.3456 15.8185 33.6216 16.1064C33.9096 16.3944 34.0532 16.7732 34.0532 17.2412C34.0531 17.6969 33.9093 18.0686 33.6216 18.3564C33.3456 18.6324 32.9734 18.7705 32.5054 18.7705C32.0374 18.7705 31.6596 18.6324 31.3716 18.3564C31.0957 18.0685 30.9576 17.697 30.9575 17.2412C30.9575 16.7732 31.0956 16.3944 31.3716 16.1064C31.6595 15.8186 32.0375 15.6748 32.5054 15.6748Z"
    fill="white" />
</svg>